{"title":"Marvels Agents of S.H.I.E.LD S04E01 1080p WEB-DL HEVC DD5.1 x265","uid":15873347,"size":733710628,"categoryP":"video","categoryS":"hd___tv_shows","magnet":"?xt=urn:btih:89178f3948323ae957bfb17a49081c2f71dcd936&amp;dn=Marvels+Agents+of+S.H.I.E.LD+S04E01+1080p+WEB-DL+HEVC+DD5.1+x265&amp;tr=udp%3A%2F%2Ftracker.leechers-paradise.org%3A6969&amp;tr=udp%3A%2F%2Fzer0day.ch%3A1337&amp;tr=udp%3A%2F%2Fopen.demonii.com%3A1337&amp;tr=udp%3A%2F%2Ftracker.coppersurfer.tk%3A6969&amp;tr=udp%3A%2F%2Fexodus.desync.com%3A6969","seeders":16,"leechers":6,"uploader":"nayhtut","files":1,"time":1474465578,"description":"[Screenshots Gallery Link]\r\n\r\n[http://postimg.org/gallery/1v4gqr60g]\r\n\r\n\r\nSource:Marvels Agents of S.H.I.E.L.D S04E01 The Ghost 1080p WEB-DL DD5.1 H.264-AG (1.67 GB)\r\n\r\n \r\nComplete name: Marvels.Agents.of.S.H.I.E.L.D.S04E01.The.Ghost.1080p.WEB-DL.HEVC.DD5.1.x265.mkv\r\nFormat                                   : Matroska\r\nFormat version                           : Version 4 / Version 2\r\nFile size                                : 700 MiB\r\nDuration                                 : 43mn 1s\r\nOverall bit rate                         : 2 274 Kbps\r\nWriting application                      : Lavf57.25.100\r\nWriting library                          : Lavf57.25.100\r\n\r\nVideo\r\n\r\nID                                       : 1\r\nFormat                                   : V_MPEGH/ISO/HEVC\r\nCodec ID                                 : V_MPEGH/ISO/HEVC\r\nDuration                                 : 43mn 1s\r\nBit rate                                 : 1 844 Kbps\r\nWidth                                    : 1 920 pixels\r\nHeight                                   : 1 080 pixels\r\nDisplay aspect ratio                     : 16:9\r\nFrame rate                               : 25.000 fps\r\nBits/(Pixel*Frame)                       : 0.036\r\nStream size                              : 568 MiB (81%)\r\nWriting library                          : Lavc57.48.101 libx265\r\nLanguage                                 : English\r\nDefault                                  : Yes\r\nForced                                   : No\r\nDURATION                                 : 00:43:01.451000000\r\n\r\nAudio\r\n\r\nID                                       : 2\r\nFormat                                   : AC-3\r\nFormat/Info                              : Audio Coding 3\r\nMode extension                           : CM (complete main)\r\nFormat settings, Endianness              : Big\r\nCodec ID                                 : A_AC3\r\nDuration                                 : 43mn 1s\r\nBit rate mode                            : Constant\r\nBit rate                                 : 384 Kbps\r\nChannel(s)                               : 6 channels\r\nChannel positions                        : Front: L C R, Side: L R, LFE\r\nSampling rate                            : 48.0 KHz\r\nBit depth                                : 16 bits\r\nCompression mode                         : Lossy\r\nStream size                              : 118 MiB (17%)\r\nWriting library                          : Lavc57.24.102 ac3\r\nLanguage                                 : English\r\nDefault                                  : Yes\r\nForced                                   : No\r\nDURATION                                 : 00:43:01.503000000\r\n\r\nText\r\n\r\nID                                       : 3\r\nFormat                                   : ASS\r\nCodec ID                                 : S_TEXT/ASS\r\nCodec ID/Info                            : Advanced Sub Station Alpha\r\nLanguage                                 : English","torrent":{"xt":"urn:btih:89178f3948323ae957bfb17a49081c2f71dcd936","amp;dn":"Marvels+Agents+of+S.H.I.E.LD+S04E01+1080p+WEB-DL+HEVC+DD5.1+x265","amp;tr":["udp%3A%2F%2Ftracker.leechers-paradise.org%3A6969","udp%3A%2F%2Fzer0day.ch%3A1337","udp%3A%2F%2Fopen.demonii.com%3A1337","udp%3A%2F%2Ftracker.coppersurfer.tk%3A6969","udp%3A%2F%2Fexodus.desync.com%3A6969"],"infoHash":"89178f3948323ae957bfb17a49081c2f71dcd936","infoHashBuffer":{"type":"Buffer","data":[137,23,143,57,72,50,58,233,87,191,177,122,73,8,28,47,113,220,217,54]},"announce":[],"urlList":[]}}